{"title":"River.Cottage-Veg.Every.Day.S01E07-Finale-AUSHD","uid":10099951,"size":364222754,"categoryP":"video","categoryS":"tv_shows","magnet":"?xt=urn:btih:2a2c9a63842370f3b53a476a760fa006036330ef&amp;dn=River.Cottage-Veg.Every.Day.S01E07-Finale-AUSHD&amp;tr=udp%3A%2F%2Ftracker.openbittorrent.com%3A80&amp;tr=udp%3A%2F%2Fopen.demonii.com%3A1337&amp;tr=udp%3A%2F%2Ftracker.coppersurfer.tk%3A6969&amp;tr=udp%3A%2F%2Fexodus.desync.com%3A6969","seeders":2,"leechers":1,"uploader":"djflickit","files":1,"time":1399377455,"description":"Eager to share the vegetable love, Hugh invites a group of local children who hate veggies to join him in the garden and attempts to win them over.\n\n\nGeneral\n\nFormat                                   : AVI\nFormat/Info                              : Audio Video Interleave\nFile size                                : 347 MiB\nDuration                                 : 46mn 32s\nOverall bit rate                         : 1 044 Kbps\n\nVideo\nID                                       : 0\nFormat                                   : MPEG-4 Visual\nFormat profile                           : Simple@L3\nFormat settings, BVOP                    : No\nFormat settings, QPel                    : No\nFormat settings, GMC                     : No warppoints\nFormat settings, Matrix                  : Default (H.263)\nCodec ID                                 : XVID\nCodec ID/Hint                            : XviD\nDuration                                 : 46mn 32s\nBit rate                                 : 899 Kbps\nWidth                                    : 640 pixels\nHeight                                   : 360 pixels\nDisplay aspect ratio                     : 16:9\nFrame rate                               : 25.000 fps\nColor space                              : YUV\nChroma subsampling                       : 4:2:0\nBit depth                                : 8 bits\nScan type                                : Progressive\nCompression mode                         : Lossy\nBits/(Pixel*Frame)                       : 0.156\nStream size                              : 299 MiB (86%)\nWriting library                          : XviD 1.2.1 (UTC 2008-12-04)\n\nAudio\nID                                       : 1\nFormat                                   : MPEG Audio\nFormat version                           : Version 1\nFormat profile                           : Layer 3\nMode                                     : Joint stereo\nMode extension                           : MS Stereo\nCodec ID                                 : 55\nCodec ID/Hint                            : MP3\nDuration                                 : 46mn 32s\nBit rate mode                            : Constant\nBit rate                                 : 128 Kbps\nChannel(s)                               : 2 channels\nSampling rate                            : 44.1 KHz\nCompression mode                         : Lossy\nStream size                              : 42.6 MiB (12%)\nAlignment                                : Aligned on interleaves\nInterleave, duration                     : 26 ms (0.65 video frame)\nWriting library                          : LAME3.98.2\n","torrent":{"xt":"urn:btih:2a2c9a63842370f3b53a476a760fa006036330ef","amp;dn":"River.Cottage-Veg.Every.Day.S01E07-Finale-AUSHD","amp;tr":["udp%3A%2F%2Ftracker.openbittorrent.com%3A80","udp%3A%2F%2Fopen.demonii.com%3A1337","udp%3A%2F%2Ftracker.coppersurfer.tk%3A6969","udp%3A%2F%2Fexodus.desync.com%3A6969"],"infoHash":"2a2c9a63842370f3b53a476a760fa006036330ef","infoHashBuffer":{"type":"Buffer","data":[42,44,154,99,132,35,112,243,181,58,71,106,118,15,160,6,3,99,48,239]},"announce":[],"urlList":[]}}